<?xml version="1.0" encoding="UTF-8" standalone="yes"?>
<svg xmlns="http://www.w3.org/2000/svg" width="142.6494140625" height="17.71044921875" viewBox="0 0 142.6494140625 17.71044921875" fill="#FFFFFF">
  <path d="M9.84 7.76L9.84 10.40L3.37 10.40L3.37 14.78L10.96 14.78L10.96 17.49L0 17.49L0 1.13L10.94 1.13L10.94 3.86L3.37 3.86L3.37 7.76L9.84 7.76ZM16.15 0.24L16.15 17.49L12.89 17.49L12.89 0.24L16.15 0.24ZM22.25 0.24L22.25 17.49L18.99 17.49L18.99 0.24L22.25 0.24ZM28.35 5.33L28.35 17.49L25.09 17.49L25.09 5.33L28.35 5.33ZM24.90 2.19L24.90 2.19Q24.90 1.46 25.39 0.99Q25.88 0.52 26.72 0.52L26.72 0.52Q27.55 0.52 28.04 0.99Q28.54 1.46 28.54 2.19L28.54 2.19Q28.54 2.93 28.04 3.40Q27.54 3.87 26.72 3.87Q25.90 3.87 25.40 3.40Q24.90 2.93 24.90 2.19ZM37.60 14.13L37.60 14.13Q37.60 13.53 37.01 13.19Q36.42 12.85 35.12 12.58L35.12 12.58Q30.78 11.67 30.78 8.89L30.78 8.89Q30.78 7.28 32.12 6.19Q33.47 5.11 35.63 5.11L35.63 5.11Q37.95 5.11 39.33 6.20Q40.72 7.29 40.72 9.03L40.72 9.03L37.48 9.03Q37.48 8.33 37.03 7.88Q36.58 7.42 35.62 7.42L35.62 7.42Q34.80 7.42 34.35 7.79Q33.90 8.16 33.90 8.74L33.90 8.74Q33.90 9.28 34.42 9.61Q34.93 9.94 36.14 10.18Q37.35 10.42 38.18 10.73L38.18 10.73Q40.76 11.67 40.76 13.99L40.76 13.99Q40.76 15.66 39.33 16.68Q37.90 17.71 35.65 17.71L35.65 17.71Q34.12 17.71 32.93 17.17Q31.75 16.62 31.07 15.67Q30.40 14.72 30.40 13.62L30.40 13.62L33.48 13.62Q33.52 14.49 34.12 14.95Q34.71 15.41 35.71 15.41L35.71 15.41Q36.65 15.41 37.12 15.05Q37.60 14.70 37.60 14.13ZM58.25 12.04L61.62 12.04Q61.43 14.68 59.67 16.19Q57.92 17.71 55.04 17.71L55.04 17.71Q51.90 17.71 50.09 15.59Q48.29 13.48 48.29 9.78L48.29 9.78L48.29 8.78Q48.29 6.42 49.12 4.63Q49.95 2.83 51.50 1.87Q53.04 0.91 55.09 0.91L55.09 0.91Q57.92 0.91 59.65 2.43Q61.37 3.94 61.64 6.68L61.64 6.68L58.27 6.68Q58.15 5.10 57.39 4.39Q56.64 3.67 55.09 3.67L55.09 3.67Q53.40 3.67 52.56 4.88Q51.73 6.09 51.71 8.63L51.71 8.63L51.71 9.86Q51.71 12.51 52.51 13.73Q53.31 14.96 55.04 14.96L55.04 14.96Q56.60 14.96 57.37 14.25Q58.14 13.53 58.25 12.04L58.25 12.04ZM63.12 11.44L63.12 11.30Q63.12 9.49 63.81 8.07Q64.51 6.66 65.82 5.88Q67.12 5.11 68.85 5.11L68.85 5.11Q71.31 5.11 72.87 6.61Q74.42 8.12 74.60 10.70L74.60 10.70L74.63 11.53Q74.63 14.33 73.07 16.02Q71.50 17.71 68.88 17.71Q66.25 17.71 64.68 16.03Q63.12 14.34 63.12 11.44L63.12 11.44ZM66.36 11.53L66.36 11.53Q66.36 13.26 67.01 14.18Q67.66 15.09 68.88 15.09L68.88 15.09Q70.06 15.09 70.72 14.19Q71.38 13.29 71.38 11.30L71.38 11.30Q71.38 9.60 70.72 8.67Q70.06 7.74 68.85 7.74L68.85 7.74Q67.66 7.74 67.01 8.66Q66.36 9.59 66.36 11.53ZM80.05 0.24L80.05 17.49L76.79 17.49L76.79 0.24L80.05 0.24ZM88.32 17.71L88.32 17.71Q85.64 17.71 83.96 16.07Q82.29 14.43 82.29 11.70L82.29 11.70L82.29 11.39Q82.29 9.56 82.99 8.11Q83.70 6.67 85.00 5.89Q86.29 5.11 87.96 5.11L87.96 5.11Q90.45 5.11 91.88 6.68Q93.31 8.25 93.31 11.14L93.31 11.14L93.31 12.47L85.58 12.47Q85.73 13.66 86.53 14.38Q87.32 15.09 88.53 15.09L88.53 15.09Q90.41 15.09 91.46 13.73L91.46 13.73L93.06 15.52Q92.33 16.55 91.08 17.13Q89.83 17.71 88.32 17.71ZM87.95 7.74L87.95 7.74Q86.98 7.74 86.38 8.39Q85.78 9.04 85.61 10.25L85.61 10.25L90.12 10.25L90.12 10.00Q90.10 8.92 89.54 8.33Q88.98 7.74 87.95 7.74ZM114.03 8.89L114.03 15.42Q113.12 16.51 111.46 17.11Q109.80 17.71 107.78 17.71L107.78 17.71Q105.66 17.71 104.06 16.78Q102.46 15.86 101.59 14.09Q100.71 12.33 100.69 9.95L100.69 9.95L100.69 8.84Q100.69 6.39 101.52 4.60Q102.34 2.81 103.90 1.86Q105.45 0.91 107.54 0.91L107.54 0.91Q110.45 0.91 112.09 2.30Q113.73 3.68 114.03 6.33L114.03 6.33L110.75 6.33Q110.53 4.93 109.76 4.28Q108.99 3.63 107.64 3.63L107.64 3.63Q105.93 3.63 105.03 4.92Q104.13 6.21 104.12 8.76L104.12 8.76L104.12 9.80Q104.12 12.38 105.09 13.69Q106.07 15.00 107.96 15.00L107.96 15.00Q109.86 15.00 110.67 14.20L110.67 14.20L110.67 11.38L107.60 11.38L107.60 8.89L114.03 8.89ZM116.04 11.44L116.04 11.30Q116.04 9.49 116.74 8.07Q117.44 6.66 118.75 5.88Q120.05 5.11 121.78 5.11L121.78 5.11Q124.24 5.11 125.80 6.61Q127.35 8.12 127.53 10.70L127.53 10.70L127.56 11.53Q127.56 14.33 125.99 16.02Q124.43 17.71 121.81 17.71Q119.18 17.71 117.61 16.03Q116.04 14.34 116.04 11.44L116.04 11.44ZM119.29 11.53L119.29 11.53Q119.29 13.26 119.94 14.18Q120.59 15.09 121.81 15.09L121.81 15.09Q122.98 15.09 123.65 14.19Q124.31 13.29 124.31 11.30L124.31 11.30Q124.31 9.60 123.65 8.67Q122.98 7.74 121.78 7.74L121.78 7.74Q120.59 7.74 119.94 8.66Q119.29 9.59 119.29 11.53ZM132.98 0.24L132.98 17.49L129.72 17.49L129.72 0.24L132.98 0.24ZM139.80 17.49L136.54 17.49L136.54 7.72L134.73 7.72L134.73 5.33L136.54 5.33L136.54 4.30Q136.54 2.26 137.71 1.13Q138.89 0 141.00 0L141.00 0Q141.67 0 142.65 0.22L142.65 0.22L142.62 2.74Q142.21 2.64 141.63 2.64L141.63 2.64Q139.80 2.64 139.80 4.36L139.80 4.36L139.80 5.33L142.21 5.33L142.21 7.72L139.80 7.72L139.80 17.49Z"/>
</svg>